<svg viewBox="0 0 102 99" xmlns="http://www.w3.org/2000/svg"><defs><linearGradient x1="-200.927%" y1="146.287%" x2="566.578%" y2="-151.562%" id="a"><stop stop-color="#006C8A" offset="0%"/><stop stop-color="#217981" offset="25%"/><stop stop-color="#009CB2" offset="50%"/><stop stop-color="#00D4D4" offset="75%"/><stop stop-color="#00F3F3" offset="100%"/></linearGradient><linearGradient x1="-92.829%" y1="105.93%" x2="602.553%" y2="-120%" id="b"><stop stop-color="#006C8A" offset="0%"/><stop stop-color="#217981" offset="25%"/><stop stop-color="#009CB2" offset="50%"/><stop stop-color="#00D4D4" offset="75%"/><stop stop-color="#00F3F3" offset="100%"/></linearGradient></defs><g fill="none"><path d="M19.796 71.596l22-21.807a2.734 2.734 0 013.842 0l2.566 2.543a2.676 2.676 0 01.005 3.804L30.773 73.5 48.21 90.864a2.676 2.676 0 01-.005 3.804l-2.566 2.543a2.734 2.734 0 01-3.842 0l-22-21.807a2.677 2.677 0 010-3.808zm69.408 3.808l-22 21.807a2.734 2.734 0 01-3.842 0l-2.566-2.543a2.676 2.676 0 01-.005-3.804L78.227 73.5 60.79 56.136a2.676 2.676 0 01.005-3.804l2.566-2.543a2.734 2.734 0 013.842 0l22 21.807a2.677 2.677 0 010 3.808z" fill="#054C5D"/><path d="M95.9 21c.5-.4 1-.9 1.3-1.4 1.5-1.8 2.5-3.9 3-6.1.7-3.6-.3-7.3-2.8-10C95 1 92 0 87 0H66.9l-3.2 18H55l2.3 9.3h4.8l-3.6 20.6h23.3c5.6 0 9.8-1.4 13.3-4.3 3.1-2.7 5.1-6.4 5.7-10.4.8-3.9-.4-8-3.2-10.8-.5-.7-1.1-1.1-1.7-1.4zM76.7 9.3h7.7c2.7 0 3.6.7 4.2 1.4.6.8.8 1.8.6 2.8-.2 1.1-.8 2.2-1.7 2.9-.9.8-2 1.5-4.8 1.5h-7.4l1.4-8.6zm13 23.5c-.3 1.5-1.1 2.9-2.2 3.9-1.4 1.3-3.2 1.9-5.9 1.9h-10l1.6-9.2.4-2.1h10.2c3.4 0 4.5 1 5.1 1.8.8 1 1 2.4.8 3.7z" fill="url(#a)"/><path d="M32.3 0L0 47.9h12.9l7.6-11.3h18.8l2.8 11.3H55L43 0H32.3zm-5.5 27.3l7.5-11.1L37 27.3H26.8z" fill="url(#b)"/><path fill="#004052" opacity=".8" d="M41.1 43.6l11.5-5.1-.5-1.9H39.3zm19.6-8.7l12.5-5.6.4-2H62.1z"/></g></svg>