<svg xmlns="http://www.w3.org/2000/svg" viewBox="0 0 100 100"><path d="M85 7.5H15A7.5 7.5 0 0 0 7.5 15v70a7.5 7.5 0 0 0 7.5 7.5h70a7.5 7.5 0 0 0 7.5-7.5V15A7.5 7.5 0 0 0 85 7.5zM85 85H15V35h70v50zm0-55H15V15h70v15z"/><path d="M55 20h5v5h-5zM65 20h5v5h-5zM75 20h5v5h-5zM30 65h5v5h5V50h-5v10h-5V50h-5v10c0 2.757 2.243 5 5 5zM65 65h5v5h5V50h-5v10h-5V50h-5v10c0 2.757 2.243 5 5 5zM50 70c4.136 0 7.5-3.364 7.5-7.5v-5c0-4.136-3.364-7.5-7.5-7.5s-7.5 3.364-7.5 7.5v5c0 4.136 3.364 7.5 7.5 7.5zm-2.5-12.5c0-1.378 1.122-2.5 2.5-2.5s2.5 1.122 2.5 2.5v5c0 1.378-1.122 2.5-2.5 2.5s-2.5-1.122-2.5-2.5v-5z"/></svg>